<svg xmlns="http://www.w3.org/2000/svg" viewBox="0 0 3601.02 860.42"><path d="M830.73,339.6c-9.59-28.65-73.05-210-143.57-216.89-56.17-5.49-99,124.2-111.52,166.94-19.74-.67-45.35-.86-64.37-.85h0c-19,0-44.67.18-64.42.86a714.82,714.82,0,0,0-28.94-78.94c-27.43-62-54.42-90.74-82.53-88-70.53,6.88-134,188.29-143.58,216.91-4.41,5.74-19.73,26.62-37.56,61.29-19,37-44.61,97.44-58.58,175.46C60.08,775,131.35,895.8,307.45,935.57c61.4,13.86,131.85,21.43,203.73,21.9h.14c71.88-.47,142.33-8,203.73-21.9C891.14,895.8,962.41,775,926.87,576.37,901.76,436.08,840.55,352.33,830.73,339.6ZM330.12,722.91a90.2,90.2,0,1,1,90.2-90.2A90.2,90.2,0,0,1,330.12,722.91Zm361.2,0a90.2,90.2,0,1,1,90.2-90.2A90.19,90.19,0,0,1,691.32,722.91Z" transform="translate(-86.75 -122.53)" style="fill:#a59e86"/><path d="M330.12,582.48a50.24,50.24,0,1,0,50.23,50.23A50.23,50.23,0,0,0,330.12,582.48Z" transform="translate(-86.75 -122.53)" style="fill:#a59e86"/><path d="M691.32,582.48a50.24,50.24,0,1,0,50.24,50.23A50.24,50.24,0,0,0,691.32,582.48Z" transform="translate(-86.75 -122.53)" style="fill:#a59e86"/><path d="M1748.77,620.93H1205a9.29,9.29,0,1,1,0-18.57h543.81a9.29,9.29,0,1,1,0,18.57Z" transform="translate(-86.75 -122.53)" style="fill:#a59e86"/><path d="M1893.65,620.93H1795a9.29,9.29,0,1,1,0-18.57h98.67a9.29,9.29,0,1,1,0,18.57Z" transform="translate(-86.75 -122.53)" style="fill:#a59e86"/><path d="M1945.45,620.93H1930a9.29,9.29,0,1,1,0-18.57h15.44a9.29,9.29,0,0,1,0,18.57Z" transform="translate(-86.75 -122.53)" style="fill:#a59e86"/><path d="M3518.5,620.93H2949.4a9.29,9.29,0,1,1,0-18.57h569.1a9.29,9.29,0,0,1,0,18.57Z" transform="translate(-86.75 -122.53)" style="fill:#a59e86"/><path d="M2900.06,620.93h-99.9a9.29,9.29,0,1,1,0-18.57h99.9a9.29,9.29,0,1,1,0,18.57Z" transform="translate(-86.75 -122.53)" style="fill:#a59e86"/><path d="M2763.69,620.93h-14.88a9.29,9.29,0,1,1,0-18.57h15.33a9.29,9.29,0,0,1,0,18.57Z" transform="translate(-86.75 -122.53)" style="fill:#a59e86"/><path d="M1291.21,671.38h434.07a3.47,3.47,0,1,0,1.24-6.82,3.23,3.23,0,0,0-1.24,0H1291.21a3.47,3.47,0,0,0,0,6.82Z" transform="translate(-86.75 -122.53)" style="fill:#a59e86"/><path d="M2329.28,752a88.3,88.3,0,0,0-10.51-14.54,85.4,85.4,0,0,0-13.2-12.08,78.53,78.53,0,0,0-17.68-10,109.45,109.45,0,0,0-53.36-6.93,162.55,162.55,0,0,0-51,14.31,287.23,287.23,0,0,0-31.21,17.35c-9.17,5.81-18,12-29.09,19.57l-10.29,7-13.87-8.39c-18.12-11.19-36.25-22.37-73.84-43.18s-60.41-28.87-83.34-31a96.75,96.75,0,0,0-18,0,76,76,0,0,0-19.81,4.81,87.72,87.72,0,0,0-21.59,12,70.72,70.72,0,0,0-20.25,23.83,51.82,51.82,0,0,0,2.91,50.57,61.61,61.61,0,0,0,12.53,14.32,76.3,76.3,0,0,0,13.65,9.06,83.11,83.11,0,0,0,29.54,8.72,98.44,98.44,0,0,0,37.92-4.47,176.55,176.55,0,0,0,47.32-25.29c12.64-9.5,12.42-11.74,6.27-9.84s-18.13,7.83-29.87,13.2a139.48,139.48,0,0,1-49.11,13.76,68.51,68.51,0,0,1-25.06-3.47,64,64,0,0,1-22.38-12.19,39.59,39.59,0,0,1-12.75-43.18,57.39,57.39,0,0,1,35.24-32.34,67.79,67.79,0,0,1,38.37-1.9,130.82,130.82,0,0,1,33.56,12.31A356.14,356.14,0,0,1,2013.91,735c35.36,24.05,53.26,35.69,71.38,47.1l2.24,1.45-6.38,3.69a367.74,367.74,0,0,1-44.75,22.38,321.07,321.07,0,0,1-31.88,11.19c-4.93,1.45-10,2.9-15.33,4.14l-8.28,1.9-9,1.79a273.6,273.6,0,0,1-48.22,4.47,215.84,215.84,0,0,1-47.32-5.14c-6-1.35-11.19-3.14-16.44-4.59a97,97,0,0,1-14.21-5.37,139.55,139.55,0,0,1-13.76-6.6l-7.27-3.8-7.5-4.7a177.84,177.84,0,0,1-35.8-30.32,181.82,181.82,0,0,1-28.3-44.42c-1.34-3-2.58-6-3.92-8.83a87.45,87.45,0,0,1-3-8.51l-1.68-4.25-1.45-4.14-1.12-2.23-1-4.14a12.15,12.15,0,0,0-3.24-7.05c-1.68-1.9-6-2.91-19.47-2.91H1305.64a52.58,52.58,0,0,1-6.15,0h-6.38a35,35,0,0,0-15.1,1.57,19.37,19.37,0,0,0-7.49,4.92,21.59,21.59,0,0,0-4.7,7.61,23.41,23.41,0,0,0,0,17,23,23,0,0,0,5.37,7.61,19.62,19.62,0,0,0,8.84,4.92,16.09,16.09,0,0,0,17.22-6.71,12.86,12.86,0,0,0,0-13.2c-1.9-3.13-4.47-3.92-5.25-3.58s0,1.12,0,3a9,9,0,0,1,0,6.38,6.5,6.5,0,0,1-5.71,4.58,10.09,10.09,0,0,1-8.17-3.24,12.33,12.33,0,0,1-2.79-9.51,8.72,8.72,0,0,1,5.26-7.39,24.25,24.25,0,0,1,11.85,0l7.39.9H1320c29.87.78,360.12,1.12,390,1.57h11.19a125.65,125.65,0,0,0,12.31,44.75h0c1.34,3,2.68,6.15,4.36,9.5-2.12-1.34-4.36-2.57-8.61-4.92-44.75-24.72-104.27-18.57-104.27,14.88s29,16.11,28.3,8.06-6.15-6.16-7.38-4.37-11.19,5-8.61-5.48,15.44-18.57,38.26-15.55A126.52,126.52,0,0,1,1722.82,764a33.48,33.48,0,0,1,8,5.6l3.25,2.8h-7a35.75,35.75,0,0,0-9.17.78,24.6,24.6,0,0,0-8.84,3.69,20.34,20.34,0,0,0-6.82,7.16,19.4,19.4,0,0,0-2.91,9.62,21.56,21.56,0,0,0,2.12,10.18,11.34,11.34,0,0,0,2.69,3.81,14.72,14.72,0,0,0,5.81,3.46,15.3,15.3,0,0,0,7.72,0,11.18,11.18,0,0,0,6-1.9,10.25,10.25,0,0,0,4-7.05,6.82,6.82,0,0,0-2.68-5.93c-1.9-1-2.46,0-2.69.9s0,1.9-.67,2.57a5.9,5.9,0,0,1-2.8,3.69,4.45,4.45,0,0,1-4.69-1,8,8,0,0,1-1.57-6,11.25,11.25,0,0,1,1.79-4.81,14.47,14.47,0,0,1,3.8-3.92,18.64,18.64,0,0,1,5.15-2.46,33.06,33.06,0,0,1,5.93-.9,27.72,27.72,0,0,1,6,0l5.26,2.58a100.61,100.61,0,0,1,9.06,4.81l8.95,5.7,9,5.71a50.87,50.87,0,0,0,7.61,3.69,40.44,40.44,0,0,0,6.49,4.92l8.16,4.7c3.58,2.69,7.16,5,10.52,7.16a23.77,23.77,0,0,0,3.13,2.24,61,61,0,0,0,6.15,3.47,220.57,220.57,0,0,0,26.07,12.53c5.15,2.12,11.19,3.69,16.33,5.59a115.85,115.85,0,0,0,18.8,4.59l11.19,1.9,12.3,1.23a225.64,225.64,0,0,0,29.42,0,302,302,0,0,0,53.14-7.16l9.63-2,8.72-2.35c5.71-1.35,11.19-3.14,16.22-4.59A339.16,339.16,0,0,0,2044,825.54a382,382,0,0,0,45.64-24.61c4.59-2.91,8.95-5.7,12.87-8.39,13.65,8.5,30,18.46,55.15,33.56,37.37,22.38,60.3,29.87,83.46,32.78a103.84,103.84,0,0,0,38.26-2.46,96.79,96.79,0,0,0,23.05-9.17,76.85,76.85,0,0,0,24.27-20.92,64,64,0,0,0,12.08-30.21,69.11,69.11,0,0,0-2.12-25.28A81.07,81.07,0,0,0,2329.28,752ZM2312.5,815.7a54,54,0,0,1-19,14.54,75.8,75.8,0,0,1-18.58,6.27,82.37,82.37,0,0,1-30.43,0c-19.13-3.25-37.92-10.18-73.38-33l-43.86-27.86,5.15-3.69c11.19-7.83,19.35-14,28.08-19.8a247.55,247.55,0,0,1,29-16.11A145.38,145.38,0,0,1,2236,722.51a90.13,90.13,0,0,1,46.65,6.49,67.11,67.11,0,0,1,32.78,31.55,59.8,59.8,0,0,1,5.6,15.21A46.33,46.33,0,0,1,2312.5,815.7Z" transform="translate(-86.75 -122.53)" style="fill:#a59e86"/><path d="M1835.48,785.38a10.18,10.18,0,1,0-10.18-10.18A10.18,10.18,0,0,0,1835.48,785.38Z" transform="translate(-86.75 -122.53)" style="fill:#a59e86"/><path d="M1824.07,744.77a10.18,10.18,0,1,0-10.19-10.18A10.18,10.18,0,0,0,1824.07,744.77Z" transform="translate(-86.75 -122.53)" style="fill:#a59e86"/><path d="M1839.28,704.16A10.18,10.18,0,1,0,1829.1,694a10.18,10.18,0,0,0,10.18,10.18Z" transform="translate(-86.75 -122.53)" style="fill:#a59e86"/><path d="M1902.82,724.86a36.59,36.59,0,0,1,38.49-7.83,4.36,4.36,0,0,0,5.59-2.24,4.25,4.25,0,0,0-2.08-5.64l-.16-.07a44.75,44.75,0,0,0-47.65,9.4,37.81,37.81,0,0,0-13,38.6,4.26,4.26,0,0,0,4,3h1.34a4.25,4.25,0,0,0,2.81-5.31v-.06A29.52,29.52,0,0,1,1902.82,724.86Z" transform="translate(-86.75 -122.53)" style="fill:#a59e86"/><path d="M2304.45,765.13a3.48,3.48,0,0,0-1.68,4.59,31.54,31.54,0,0,1-1.68,33.56c-10.4,13.87-33.56,20.47-58.84,16.67-23.05-3.36-49.34-20.7-74.62-37.48l-12.87-8.39a3.4,3.4,0,0,0-3.69,5.71h0l12.75,8.39c26,17.12,52.92,34.9,77.42,38.6a121,121,0,0,0,15.22,1.11,60.72,60.72,0,0,0,50-20.58,38.48,38.48,0,0,0,2.46-40.5,3.36,3.36,0,0,0-4.43-1.7Z" transform="translate(-86.75 -122.53)" style="fill:#a59e86"/><path d="M2965.28,674.4h434.07a3.36,3.36,0,1,0,0-6.71H2965.28a3.36,3.36,0,0,0,0,6.71Z" transform="translate(-86.75 -122.53)" style="fill:#a59e86"/><path d="M3428.44,698.34a20.15,20.15,0,0,0-4.7-7.6,19.45,19.45,0,0,0-7.49-4.92,34.89,34.89,0,0,0-15.11-1.57h-6.37a52.75,52.75,0,0,1-6.16,0H2975.24c-13.42,0-17.68,1-19.35,2.91a11.2,11.2,0,0,0-3.36,7.05l-1,4.13-.67,2.13-1.23,4.25-1.56,4.25c-1.12,2.8-2,5.6-3.14,8.51l-3.91,8.83a181.75,181.75,0,0,1-28.42,43.75,174,174,0,0,1-35.8,30.31l-7.49,4.7-7.27,3.81a142.56,142.56,0,0,1-13.77,6.6c-4.47,2-9.28,3.46-14.2,5.37a116.06,116.06,0,0,1-16.45,4.58,215.18,215.18,0,0,1-47.32,5.15,271.44,271.44,0,0,1-48.11-4.48l-9.06-1.79-8.28-1.9c-5.37-1.23-10.4-2.68-15.32-4.14a321.19,321.19,0,0,1-31.89-11.18,370.65,370.65,0,0,1-44.75-22.38l-6.37-3.69,2.23-1.46c18.13-11.18,36-23,71.38-47.09a341.81,341.81,0,0,1,33.56-20.92,128.61,128.61,0,0,1,32.89-12.31,67.09,67.09,0,0,1,38.37,1.9,57.37,57.37,0,0,1,35.24,32.33,39.28,39.28,0,0,1-13,43.75,63.15,63.15,0,0,1-22.38,12.19,68.73,68.73,0,0,1-25.06,3.47,138.37,138.37,0,0,1-49-13.76c-11.86-5.37-23.83-11.19-30-13.2s-6.38,0,6.38,9.84A174,174,0,0,0,2734.38,801a98.64,98.64,0,0,0,37.92,4.48,84.37,84.37,0,0,0,29.65-8.73,75.45,75.45,0,0,0,13.54-9.06A59.13,59.13,0,0,0,2828,773.41a50.21,50.21,0,0,0,7.83-22.37,50.74,50.74,0,0,0-4.93-28.42,70.62,70.62,0,0,0-20.25-24.5,87.36,87.36,0,0,0-21.59-12,75,75,0,0,0-19.8-4.81,95.57,95.57,0,0,0-17.9,0c-23,2.13-45.53,10-83.46,31S2612,744,2594.2,755.51l-14,8.84-10.3-7.05c-11.18-7.61-19.91-13.76-29.08-19.58a278.71,278.71,0,0,0-31.22-17.34,162.93,162.93,0,0,0-50.9-14.32,109.79,109.79,0,0,0-53.47,6.94,74.76,74.76,0,0,0-17.57,10A86.63,86.63,0,0,0,2374.37,735a88.35,88.35,0,0,0-10.52,14.54,81.87,81.87,0,0,0-7.83,18.91,69.11,69.11,0,0,0-2.12,25.28A64,64,0,0,0,2366,824a78.33,78.33,0,0,0,24.84,23.94,96.55,96.55,0,0,0,23,9.17,104.21,104.21,0,0,0,38.37,2.46c23.05-2.9,46-11.18,83.35-32.77,25.17-14.77,41.5-24.73,55.15-33.57,3.92,2.69,8.28,5.49,12.87,8.39a383.51,383.51,0,0,0,45.64,24.62,334.73,334.73,0,0,0,33.56,12.64c5.26,1.45,10.41,3.24,16.11,4.58l8.73,2.35,9.62,2a303.69,303.69,0,0,0,52,6.71,227.48,227.48,0,0,0,29.54,0l12.19-1.23,11.19-1.9c6.93-1.23,13.09-3.13,18.9-4.59a110.78,110.78,0,0,0,16.23-5.59,220.43,220.43,0,0,0,26.06-12.53,60,60,0,0,0,6.16-3.47,23.77,23.77,0,0,0,3.13-2.24c3.35-2.12,6.93-4.47,10.63-7.16s4-2.24,8.05-4.7a49.4,49.4,0,0,0,6.6-4.92,56.68,56.68,0,0,0,7.5-3.69l8.95-5.71,9-5.7a99.28,99.28,0,0,1,9.06-4.81l5.26-2.58a27.72,27.72,0,0,1,6,0,33.06,33.06,0,0,1,5.93.9,18.45,18.45,0,0,1,5.14,2.46,13.07,13.07,0,0,1,3.81,3.92,11.25,11.25,0,0,1,1.79,4.81,8.07,8.07,0,0,1-1.57,6,4.46,4.46,0,0,1-4.7,1,5.91,5.91,0,0,1-2.79-3.69,4,4,0,0,0-.68-2.57c-.67-.89-.78-1.9-2.57-.89a6.71,6.71,0,0,0-2.8,5.92,10.29,10.29,0,0,0,4,7,11.06,11.06,0,0,0,6,1.9,15.2,15.2,0,0,0,13.65-3.8,12.75,12.75,0,0,0,2.57-3.8,21.6,21.6,0,0,0,2.13-10.18,20.88,20.88,0,0,0-2.8-9.62A22.25,22.25,0,0,0,2984,776a25.09,25.09,0,0,0-8.73-3.7,38.06,38.06,0,0,0-9.28-.78h-7.05l3.35-2.8a30.06,30.06,0,0,1,7.95-5.59,126.34,126.34,0,0,1,47.32-14.54c22.37-3,35.8,5,38.26,15.55s-7.38,7.38-8.61,5.48-6.83-3.69-7.39,4.36,28.31,25.4,28.31-8.05-59.74-39.61-104.27-14.88c-4.25,2.35-6.49,3.58-8.61,4.92,1.67-3.36,3.13-6.49,4.36-9.51h0a125.58,125.58,0,0,0,12.3-44.75h11.19c29.87,0,360.12-.78,390-1.56h20.14l7.38-.9a24.05,24.05,0,0,1,11.86,0,8.74,8.74,0,0,1,5.26,7.38,12.28,12.28,0,0,1-2.8,9.51,10.07,10.07,0,0,1-8.16,3.25,6.6,6.6,0,0,1-5.71-4.59,9,9,0,0,1,0-6.38c.78-1.9,1.34-2.79,0-3s-3.36,0-5.26,3.58a12.86,12.86,0,0,0,0,13.2,16.11,16.11,0,0,0,17.23,6.72A20.62,20.62,0,0,0,3422,724a24.54,24.54,0,0,0,5.26-7.6A23.55,23.55,0,0,0,3428.44,698.34Zm-905.5,105.5c-35.58,22.38-54.37,29.76-73.5,33a81.94,81.94,0,0,1-30.43,0,75.56,75.56,0,0,1-18.57-6.26,54.15,54.15,0,0,1-19-14.54,46.66,46.66,0,0,1-9-40.28,59.4,59.4,0,0,1,5.59-15.21,74,74,0,0,1,7.94-12.42A67.81,67.81,0,0,1,2410.84,729a90.34,90.34,0,0,1,46.76-6.49A145.19,145.19,0,0,1,2504,736.05a246.32,246.32,0,0,1,29.42,16.78c8.73,5.81,17.34,12,28.08,19.8l5.15,3.69Z" transform="translate(-86.75 -122.53)" style="fill:#a59e86"/><path d="M2858.45,785.38a10.18,10.18,0,1,0-10.19-10.18,10.18,10.18,0,0,0,10.19,10.18Z" transform="translate(-86.75 -122.53)" style="fill:#a59e86"/><path d="M2869.86,744.77a10.18,10.18,0,1,0-10.18-10.18A10.18,10.18,0,0,0,2869.86,744.77Z" transform="translate(-86.75 -122.53)" style="fill:#a59e86"/><path d="M2854.64,704.16A10.18,10.18,0,1,0,2844.46,694,10.18,10.18,0,0,0,2854.64,704.16Z" transform="translate(-86.75 -122.53)" style="fill:#a59e86"/><path d="M2804.75,761.89h1.34a4.48,4.48,0,0,0,4.14-3.13,38,38,0,0,0-13.09-38.6,44.77,44.77,0,0,0-47.66-9.4,4.37,4.37,0,0,0,3.36,8.06,36.35,36.35,0,0,1,38.48,7.83A29.41,29.41,0,0,1,2802,756.18a4.36,4.36,0,0,0,2.55,5.62Z" transform="translate(-86.75 -122.53)" style="fill:#a59e86"/><path d="M2536.25,777.22l-12.87,8.39c-25.28,16.78-51.57,33.56-74.61,37.47-25.4,3.7-48.56-2.79-58.85-16.67a31.66,31.66,0,0,1-1.68-33.56,3.35,3.35,0,0,0-1.63-4.45l-.05,0a3.56,3.56,0,0,0-4.58,1.68,38.24,38.24,0,0,0,2.57,40.49,60.76,60.76,0,0,0,50,20.48,103.19,103.19,0,0,0,15.21-1.12c24.5-3.58,51.35-21.37,77.42-38.6l12.64-8.28a3.35,3.35,0,0,0,1.05-4.63.43.43,0,0,1,0-.07,3.15,3.15,0,0,0-4.23-1.34A3.61,3.61,0,0,0,2536.25,777.22Z" transform="translate(-86.75 -122.53)" style="fill:#a59e86"/><path d="M1139.51,598.89a77.24,77.24,0,0,0-24.61,3.69,79.83,79.83,0,0,0,3-22.37c0-19.69-5.82-35.58-13-35.58s-12.86,15.44-12.86,34.79a82.78,82.78,0,0,0,2.68,22.38,80.84,80.84,0,0,0-22.37-2.8c-19.58,0-35.46,5.82-35.46,13s16.1,12.19,35.68,12.19a79.37,79.37,0,0,0,22.38-2.79,79.31,79.31,0,0,0-2.8,22.37c0,19.58,5.82,35.58,13,35.58s12.86-16,12.86-35.58a83.27,83.27,0,0,0-2.91-22.37,75.13,75.13,0,0,0,24.84,3.8c19.58,0,35.46-5.82,35.46-13S1159.09,598.89,1139.51,598.89Z" transform="translate(-86.75 -122.53)" style="fill:#ffabde"/><path d="M2382.09,901.73a76.87,76.87,0,0,0-24.61,3.58,83.72,83.72,0,0,0,3-22.37c0-19.69-5.82-35.58-13-35.58s-13,15.89-13,35.58a82.73,82.73,0,0,0,2.69,21.7,80.11,80.11,0,0,0-22.38-2.8c-19.69,0-35.46,5.82-35.46,13s15.77,13,35.46,13a79,79,0,0,0,22.38-2.8,85.32,85.32,0,0,0-2.8,22.37c0,19.69,5.82,35.58,13,35.58s13-15.89,13-35.58a83.27,83.27,0,0,0-2.91-22.37,77.47,77.47,0,0,0,24.83,3.69c19.58,0,35.35-5.82,35.35-13S2402,901.73,2382.09,901.73Z" transform="translate(-86.75 -122.53)" style="fill:#afd0ff"/><path d="M3651.74,598.89a76.65,76.65,0,0,0-24.61,3.69,80.2,80.2,0,0,0,3-22.37c0-19.69-5.82-35.58-13-35.58s-13,15.89-13,35.58a82.73,82.73,0,0,0,2.69,21.7,80.11,80.11,0,0,0-22.38-2.8c-19.58,0-35.46,5.82-35.46,13s16.44,12.08,35.8,12.08a78.58,78.58,0,0,0,22.37-2.79,84,84,0,0,0-2.79,22.37c0,19.58,5.81,35.58,13,35.58s13-16,13-35.58a83.27,83.27,0,0,0-2.91-22.37,74.28,74.28,0,0,0,24.84,3.8c19.58,0,35.46-5.82,35.46-13S3671.32,598.89,3651.74,598.89Z" transform="translate(-86.75 -122.53)" style="fill:#aafff8"/><path d="M2069,624.31q-.58-4.83-1.21-10.11c-.42-3.52-.83-7-1.25-10.42s-.84-6.72-1.25-9.85-.81-6-1.17-8.55c-.41-3-1.5-5.24-3.26-6.58a8.82,8.82,0,0,0-5.86-1.88,12.15,12.15,0,0,0-6.31,2.2,13,13,0,0,0-4.7,5.55l-14,30.7q-2.07-4.57-5.15-11.29T2018,589.32q-1.44-3-2.68-5.29a15,15,0,0,0-2.69-3.57,8.46,8.46,0,0,0-3.22-1.92,12.91,12.91,0,0,0-8.5.44,7,7,0,0,0-2.82,2.28,13.26,13.26,0,0,0-1.88,3.94,50.41,50.41,0,0,0-1.39,5.73q-.72,3.75-1.34,8.32c-.42,3-.8,6.18-1.16,9.4s-.69,6.43-1,9.62-.55,6.21-.76,9-.39,5.42-.54,7.74-.22,4.18-.22,5.55a8.12,8.12,0,0,0,.63,3.68,8.52,8.52,0,0,0,4.51,4.46,9,9,0,0,0,3,.72,9.91,9.91,0,0,0,3.09-.31,7.17,7.17,0,0,0,2.77-1.39,8.2,8.2,0,0,0,2-2.5,7.74,7.74,0,0,0,.81-3.67q0-3,.27-6.58c.17-2.42.4-4.89.67-7.43s.54-5.07.84-7.61.6-4.91.9-7.12l12.89,29.9a10.22,10.22,0,0,0,3.49,4.69,7,7,0,0,0,4.43,1.35,7.67,7.67,0,0,0,4.34-1.75,11,11,0,0,0,3.31-4.74l11.72-29.09q.54,3.85,1.22,8.46c.44,3.07.88,6,1.29,8.86s.79,5.38,1.12,7.61.55,3.81.67,4.69a8.64,8.64,0,0,0,1.17,3.59,7.08,7.08,0,0,0,2.24,2.28,8.63,8.63,0,0,0,2.9,1.17,8.24,8.24,0,0,0,3.09,0,11,11,0,0,0,3-1,8.34,8.34,0,0,0,4.17-4.8,9.05,9.05,0,0,0,.4-3.71q-.27-3-.72-7.11C2069.7,630.53,2069.36,627.54,2069,624.31Z" transform="translate(-86.75 -122.53)" style="fill:#a59e86"/><path d="M2095.78,602.52a8.28,8.28,0,0,0-4.88-4.34,9.78,9.78,0,0,0-6.35,0,8,8,0,0,0-2.82,1.65,7.89,7.89,0,0,0-2,2.78,9.44,9.44,0,0,0-.72,3.8l.45,34.73a8.53,8.53,0,0,0,.81,3.8,8.14,8.14,0,0,0,2.06,2.73,8.47,8.47,0,0,0,2.81,1.61,9.73,9.73,0,0,0,3.18.53,9,9,0,0,0,6-2.27,7.83,7.83,0,0,0,2-2.77A9.5,9.5,0,0,0,2097,641l-.44-34.63A8.67,8.67,0,0,0,2095.78,602.52Z" transform="translate(-86.75 -122.53)" style="fill:#a59e86"/><path d="M2094.71,574.73a10.88,10.88,0,0,0-2.69-1.79,7.89,7.89,0,0,0-3.18-.76,8.27,8.27,0,0,0-6.48,2.82l-1.89,2a9.3,9.3,0,0,0-2.1,3.31,8,8,0,0,0-.44,3.35,8.37,8.37,0,0,0,.89,3.18,9,9,0,0,0,1.92,2.6,10.6,10.6,0,0,0,2.69,1.79,7.81,7.81,0,0,0,3.18.75,8.21,8.21,0,0,0,6.48-2.81l1.88-2a9.24,9.24,0,0,0,2.11-3.31,8.34,8.34,0,0,0,.44-3.35,8.7,8.7,0,0,0-.89-3.18A9.06,9.06,0,0,0,2094.71,574.73Z" transform="translate(-86.75 -122.53)" style="fill:#a59e86"/><path d="M2146.43,628.16a8,8,0,0,0-4.39-.4,10.73,10.73,0,0,0-4.92,2.45,10.32,10.32,0,0,1-5.24,2.43,11.56,11.56,0,0,1-5.05-.4,10.53,10.53,0,0,1-4-2.33,5.88,5.88,0,0,1-1.93-3.45,16.92,16.92,0,0,1,.45-8,15.68,15.68,0,0,1,3.31-6,8.33,8.33,0,0,1,4.43-2.59,5.11,5.11,0,0,1,4.43,1.35,9.75,9.75,0,0,0,5.91,2.37,10.74,10.74,0,0,0,5.68-1.21,8.23,8.23,0,0,0,3.63-3.94,7.56,7.56,0,0,0-.18-6,14.45,14.45,0,0,0-4.12-5.64,17,17,0,0,0-6.17-3.27,23.74,23.74,0,0,0-7.57-.89,28.93,28.93,0,0,0-8.19,1.47,24,24,0,0,0-7.65,4.34,29.29,29.29,0,0,0-6.58,7.66,34,34,0,0,0-4.07,10.42,33.2,33.2,0,0,0-.22,12.57,24.29,24.29,0,0,0,2.23,7.16,23.71,23.71,0,0,0,3.94,5.69,24.27,24.27,0,0,0,5.28,4.21,28.64,28.64,0,0,0,20,3.4,28.74,28.74,0,0,0,6.76-2.2,26,26,0,0,0,6.13-4,9.8,9.8,0,0,0,3-4.35,9.14,9.14,0,0,0,.35-4.51,8.28,8.28,0,0,0-1.83-3.86A8.93,8.93,0,0,0,2146.43,628.16Z" transform="translate(-86.75 -122.53)" style="fill:#a59e86"/><path d="M2205.37,632.68c-.1-2.06-.17-4.34-.23-6.85s-.07-4.89,0-7.15,0-4.07-.14-5.38a48.17,48.17,0,0,0-1-7.92,14.2,14.2,0,0,0-2.6-6,13,13,0,0,0-4.57-3.63,17.18,17.18,0,0,0-5.57-1.47,22.25,22.25,0,0,0-6.11.31,36.44,36.44,0,0,0-6.19,1.75c-.6.24-1.2.51-1.79.8l-1.8.9V581.44a9.14,9.14,0,0,0-.75-3.8,7.67,7.67,0,0,0-2.06-2.73,9.25,9.25,0,0,0-2.84-1.62,9.9,9.9,0,0,0-3.17-.53,9.19,9.19,0,0,0-3.16.58,8.34,8.34,0,0,0-2.76,1.7,8.58,8.58,0,0,0-1.95,2.78,9,9,0,0,0-.76,3.8l-.09,58.54a9.14,9.14,0,0,0,.75,3.8,7.62,7.62,0,0,0,2,2.73,9.36,9.36,0,0,0,2.85,1.61,9.59,9.59,0,0,0,3.17.53,8.69,8.69,0,0,0,3.15-.58,8,8,0,0,0,2.76-1.7,8.49,8.49,0,0,0,2-2.78,9.11,9.11,0,0,0,.76-3.8V620.82a11,11,0,0,1,1.94-3.31,20.4,20.4,0,0,1,3.25-3.31,9.86,9.86,0,0,1,3.38-1.92,2,2,0,0,1,2.43.66,9,9,0,0,1,1.17,4,52.86,52.86,0,0,1,.23,5.77q-.06,3.1-.18,6c-.09,1.94-.11,3.51,0,4.7q.09,2.87.27,4.92a19.33,19.33,0,0,0,.63,3.63,9.62,9.62,0,0,0,1.21,2.73,7.12,7.12,0,0,0,2.1,2.06,9.41,9.41,0,0,0,5.41,1.79,8.78,8.78,0,0,0,5-1.43,9.26,9.26,0,0,0,3.31-4,9.35,9.35,0,0,0,.45-5.91A33.66,33.66,0,0,1,2205.37,632.68Z" transform="translate(-86.75 -122.53)" style="fill:#a59e86"/><path d="M2231.37,574.73a10.52,10.52,0,0,0-2.69-1.79,7.86,7.86,0,0,0-3.18-.76A8.27,8.27,0,0,0,2219,575l-1.89,2a9.3,9.3,0,0,0-2.1,3.31,8,8,0,0,0-.44,3.35,8.37,8.37,0,0,0,.89,3.18,9,9,0,0,0,1.93,2.6,10.55,10.55,0,0,0,2.68,1.79,7.81,7.81,0,0,0,3.18.75,8.59,8.59,0,0,0,3.31-.57,8.69,8.69,0,0,0,3.18-2.24l1.88-2a9.21,9.21,0,0,0,2.1-3.31,8.35,8.35,0,0,0,.45-3.35,8.91,8.91,0,0,0-.9-3.18A9.06,9.06,0,0,0,2231.37,574.73Z" transform="translate(-86.75 -122.53)" style="fill:#a59e86"/><path d="M2232.44,602.52a8.41,8.41,0,0,0-2.06-2.73,8.61,8.61,0,0,0-2.82-1.61,9.78,9.78,0,0,0-6.35,0,8.12,8.12,0,0,0-2.82,1.65,7.89,7.89,0,0,0-2,2.78,9.44,9.44,0,0,0-.72,3.8l.45,34.73a8.53,8.53,0,0,0,.81,3.8,8.27,8.27,0,0,0,2.06,2.73,8.41,8.41,0,0,0,2.82,1.61,9.63,9.63,0,0,0,3.17.53,9,9,0,0,0,6-2.27,7.83,7.83,0,0,0,2-2.77,9.33,9.33,0,0,0,.73-3.82l-.45-34.63A8.67,8.67,0,0,0,2232.44,602.52Z" transform="translate(-86.75 -122.53)" style="fill:#a59e86"/><path d="M2291,607.3a23.07,23.07,0,0,0-14.62-12,31.42,31.42,0,0,0-10.52-1,30.56,30.56,0,0,0-12.31,3.13,22.8,22.8,0,0,0-7.61,6.41,24.33,24.33,0,0,0-4,8.45,47.72,47.72,0,0,0-1.48,9.31,23.72,23.72,0,0,0,2.42,13.07,25.64,25.64,0,0,0,7.78,9,28.1,28.1,0,0,0,10.88,4.65,28.89,28.89,0,0,0,11.86,0,27.39,27.39,0,0,0,8.14-3.31,26.13,26.13,0,0,0,7-6.22,27.2,27.2,0,0,0,4.57-9,30.38,30.38,0,0,0,.84-11.86A29.94,29.94,0,0,0,2291,607.3Zm-14.89,17.28a10.62,10.62,0,0,1-1.89,3.62,9.05,9.05,0,0,1-2.81,2.33,10.63,10.63,0,0,1-3.4,1.12,8.6,8.6,0,0,1-4-.4,8.25,8.25,0,0,1-3.22-2.06,9.77,9.77,0,0,1-2.1-3.27,9.27,9.27,0,0,1-.68-3.93,12.55,12.55,0,0,1,2.33-7.47q2.14-2.74,6.8-3.1a8.44,8.44,0,0,1,3.94.54,8.56,8.56,0,0,1,2.86,1.92,8.73,8.73,0,0,1,1.79,2.73,11.52,11.52,0,0,1,.81,3A12.92,12.92,0,0,1,2276.07,624.58Z" transform="translate(-86.75 -122.53)" style="fill:#a59e86"/><path d="M2388.39,635.14c-.21-.89-.4-1.87-.58-2.9s-.33-2.11-.45-3.18a26,26,0,0,1-.17-2.87l-.36-44.21A8.76,8.76,0,0,0,2386,578a9.39,9.39,0,0,0-2.11-2.82,7.49,7.49,0,0,0-2.91-1.61,11.28,11.28,0,0,0-3.27-.49,9.49,9.49,0,0,0-3.26.58,9,9,0,0,0-2.82,1.7,8.26,8.26,0,0,0-2,2.82,9.38,9.38,0,0,0-.77,3.93l.09,14.6a30,30,0,0,0-9.12-.76,26.9,26.9,0,0,0-9,2.15,25.24,25.24,0,0,0-7.79,5.23,23.29,23.29,0,0,0-5.46,8.59,32.92,32.92,0,0,0-2.59,12.62,25.26,25.26,0,0,0,2.23,10.43,23.47,23.47,0,0,0,6,7.88,25.74,25.74,0,0,0,8.56,4.87,22.93,22.93,0,0,0,6.13,1.26,28,28,0,0,0,5.76-.23,32.12,32.12,0,0,0,5.24-1.2,33.69,33.69,0,0,0,4.43-1.8,7.52,7.52,0,0,0,4.57,2.91,10.11,10.11,0,0,0,5.28-.22,11.7,11.7,0,0,0,3-1.57,8.36,8.36,0,0,0,2.32-2.5,8.24,8.24,0,0,0,1.13-3.31,8.52,8.52,0,0,0-.59-4A12.8,12.8,0,0,1,2388.39,635.14Zm-24.75-3.26a9.78,9.78,0,0,1-5.63-.32,9,9,0,0,1-3.63-2.37,8.31,8.31,0,0,1-1.79-3.31,9.32,9.32,0,0,1-.22-3.76,12,12,0,0,1,1.16-3.72,10.68,10.68,0,0,1,2.51-3.09,10.12,10.12,0,0,1,3.63-2,8.9,8.9,0,0,1,4.25-.22,9.18,9.18,0,0,1,4.38,2.29,1.68,1.68,0,0,0,.4.3,1.88,1.88,0,0,1,.41.32l.08,13.51A15.73,15.73,0,0,1,2363.64,631.88Z" transform="translate(-86.75 -122.53)" style="fill:#a59e86"/><path d="M2448.31,635.05c-.18-.89-.36-1.86-.53-2.9s-.35-2.1-.49-3.14a18.8,18.8,0,0,1-.23-2.82l-.36-24.52a9,9,0,0,0-.84-3.94,8.83,8.83,0,0,0-2.11-2.77,8.47,8.47,0,0,0-2.91-1.62,10.75,10.75,0,0,0-3.27-.53,9.5,9.5,0,0,0-4.47,1.12,8.09,8.09,0,0,0-3.4,3.36,31,31,0,0,0-9.27-1.66,24.42,24.42,0,0,0-9.17,1.47,24.11,24.11,0,0,0-8.06,5,23.64,23.64,0,0,0-5.81,8.94,33.17,33.17,0,0,0-2.6,12.62,25.38,25.38,0,0,0,2.24,10.43,23,23,0,0,0,6,7.88,25.38,25.38,0,0,0,8.54,4.87,29.2,29.2,0,0,0,10.83,1.57,25.57,25.57,0,0,0,10.74-2.82,7.36,7.36,0,0,0,4.61,3.09,10.25,10.25,0,0,0,5.32-.22,11.93,11.93,0,0,0,3-1.57,8.63,8.63,0,0,0,2.32-2.5,8.3,8.3,0,0,0,1.12-3.36,8.64,8.64,0,0,0-.58-4A10.44,10.44,0,0,1,2448.31,635.05Zm-24.52-4.11a9.47,9.47,0,0,1-6,0,8,8,0,0,1-3.57-2.46,9.65,9.65,0,0,1-1.88-3.67,10.78,10.78,0,0,1-.28-4.12,10.23,10.23,0,0,1,1.17-3.72,7.32,7.32,0,0,1,2.46-2.5,11.19,11.19,0,0,1,3.8-1.53,13.14,13.14,0,0,1,4.57-.09,11.87,11.87,0,0,1,4.74,1.88L2429,628A13.12,13.12,0,0,1,2423.79,630.94Z" transform="translate(-86.75 -122.53)" style="fill:#a59e86"/><path d="M2542,615.45c0-1.49,0-3-.1-4.47a27.84,27.84,0,0,0-.49-4.34,17.92,17.92,0,0,0-1.29-4.08,12.6,12.6,0,0,0-2.6-3.67,17.09,17.09,0,0,0-6.09-3.93,15.91,15.91,0,0,0-6.57-.94,22.66,22.66,0,0,0-6.72,1.52,35.37,35.37,0,0,0-6.49,3.35,7.41,7.41,0,0,0-3.31-4,9.74,9.74,0,0,0-8.1-.81,7.8,7.8,0,0,0-2.77,1.65,8.58,8.58,0,0,0-2,2.78,9,9,0,0,0-.76,3.8l.18,38.58a8.84,8.84,0,0,0,.77,3.8,7.37,7.37,0,0,0,2.06,2.73,9.24,9.24,0,0,0,2.88,1.62,9.9,9.9,0,0,0,6.39,0,7.86,7.86,0,0,0,2.78-1.66,8.6,8.6,0,0,0,2-2.78,9,9,0,0,0,.76-3.8l-.08-20.32a28.91,28.91,0,0,1,2.66-2.68,29.4,29.4,0,0,1,3.29-2.55,20.79,20.79,0,0,1,3.12-1.75,3,3,0,0,1,2.13-.35,2.12,2.12,0,0,1,1.11,1.47,12.54,12.54,0,0,1,.39,2.78,32.7,32.7,0,0,1,0,3.71c0,1.38-.12,2.78-.17,4.21-.06,1.13-.13,2.5-.22,4.12s-.14,3.26-.14,5a48.9,48.9,0,0,0,.23,4.92,16.45,16.45,0,0,0,.75,3.89,9.14,9.14,0,0,0,4.52,5.42,9.32,9.32,0,0,0,6,.76,8.4,8.4,0,0,0,2.73-1,8.89,8.89,0,0,0,2.28-1.92,8.07,8.07,0,0,0,1.48-2.59,6.74,6.74,0,0,0,.22-3.23,86.12,86.12,0,0,1-.86-12.48Q2542,621.9,2542,615.45Z" transform="translate(-86.75 -122.53)" style="fill:#a59e86"/><path d="M2590.79,597.82a24.08,24.08,0,0,0-8.91-4.07,25.08,25.08,0,0,0-9.8-.32,26.66,26.66,0,0,0-8.77,3.05,24.2,24.2,0,0,0-7.34,6.31,29.1,29.1,0,0,0-4.83,9.57,36.46,36.46,0,0,0-1.26,12.85,26.19,26.19,0,0,0,1.93,8.68,25.41,25.41,0,0,0,4.35,7,25,25,0,0,0,6.21,5.19,27,27,0,0,0,7.56,3.09,32.59,32.59,0,0,0,10,.81,27.09,27.09,0,0,0,10.33-3,10.58,10.58,0,0,0,5.24-5.23,6.9,6.9,0,0,0-.22-6,10.57,10.57,0,0,0-2-2.54,8.24,8.24,0,0,0-6.13-2.2,9.78,9.78,0,0,0-3.76,1.07,12.05,12.05,0,0,1-5,1.45,12.6,12.6,0,0,1-4.61-.45,9.1,9.1,0,0,1-3-1.71,12,12,0,0,1-2.5-2.77l24.51-1.17a7.82,7.82,0,0,0,5.6-2.55,7.32,7.32,0,0,0,1.43-2.32,9,9,0,0,0,.58-2.55,9.77,9.77,0,0,0,.27-3,26.6,26.6,0,0,0-3.13-11.4A24,24,0,0,0,2590.79,597.82Zm-22.38,17.36a10.54,10.54,0,0,1,3-3.48,9.2,9.2,0,0,1,3.45-1.62,5.88,5.88,0,0,1,4.16.68,7,7,0,0,1,3.17,3.71Z" transform="translate(-86.75 -122.53)" style="fill:#a59e86"/><path d="M2640.64,617.25l10.47-9.67a8.18,8.18,0,0,0,2.28-3.14,9.12,9.12,0,0,0,.68-3.4,8.37,8.37,0,0,0-.64-3.22,10.1,10.1,0,0,0-1.69-2.77,10.77,10.77,0,0,0-2.51-2,8.23,8.23,0,0,0-3-1.09,7.77,7.77,0,0,0-3.35.32,8.74,8.74,0,0,0-3.37,2.06L2625.78,607v-24.8a8.59,8.59,0,0,0-1.3-4.87,8.45,8.45,0,0,0-3.27-2.91,9.51,9.51,0,0,0-8.41,0,8.21,8.21,0,0,0-4.56,7.78v58.9a8.24,8.24,0,0,0,4.56,7.79,9.51,9.51,0,0,0,8.41,0,8.23,8.23,0,0,0,4.57-7.79V630.85l2.06-1.88,11.9,16.55a8.84,8.84,0,0,0,2.82,2.69,8.11,8.11,0,0,0,3.18,1.07,9,9,0,0,0,3.18-.22,9.51,9.51,0,0,0,2.91-1.3,8.67,8.67,0,0,0,2.28-2.24,8.4,8.4,0,0,0,1.3-2.95,8.22,8.22,0,0,0,0-3.35,9.64,9.64,0,0,0-1.62-3.54Z" transform="translate(-86.75 -122.53)" style="fill:#a59e86"/><path d="M2712.33,617.78a29.73,29.73,0,0,0-2.95-10.48,23.1,23.1,0,0,0-14.64-12,31.3,31.3,0,0,0-10.51-1,30.56,30.56,0,0,0-12.31,3.13,22.8,22.8,0,0,0-7.61,6.41,24.53,24.53,0,0,0-4,8.45,49.26,49.26,0,0,0-1.47,9.31,23.81,23.81,0,0,0,2.41,13.07,25.87,25.87,0,0,0,7.79,9,28.19,28.19,0,0,0,10.87,4.65,28.93,28.93,0,0,0,11.87,0,27.28,27.28,0,0,0,8.14-3.31,25.94,25.94,0,0,0,7-6.22,26.83,26.83,0,0,0,4.57-9A29.81,29.81,0,0,0,2712.33,617.78Zm-17.85,6.8a10.78,10.78,0,0,1-1.88,3.62,9.2,9.2,0,0,1-2.82,2.33,10.6,10.6,0,0,1-3.41,1.12,8.55,8.55,0,0,1-4-.4,8.25,8.25,0,0,1-3.22-2.06,10,10,0,0,1-2.11-3.27,9.42,9.42,0,0,1-.67-3.93,12.55,12.55,0,0,1,2.33-7.47c1.43-1.83,3.69-2.86,6.8-3.1a8.23,8.23,0,0,1,6.8,2.46,8.55,8.55,0,0,1,1.79,2.73,11.52,11.52,0,0,1,.81,3A12.73,12.73,0,0,1,2694.48,624.58Z" transform="translate(-86.75 -122.53)" style="fill:#a59e86"/><path d="M1422,479.14c-.24-.36-.56-.75-.75-1.09C1420.92,480.14,1421.17,480.48,1422,479.14Z" transform="translate(-86.75 -122.53)" style="fill:#a59e86"/><path d="M1518.68,416.51l-13.21-5.38-5.37-1.65q7.44-26.84,7.43-49.15,0-14.44-3.71-18.59-5.38-2.89-21.9-2.89-9.92,0-11.56,2.07-.42,0-16.12,48.32-33-11.55-62-19.41l24-61.13q13.2-36.34,13.21-61.55,0-10.74-3.72-16.11-18.59-7.84-58.65-7.85a436,436,0,0,0-57,4.13q-45.46,6.21-49.16,13.63c-1.38,2.21-2.07,5.78-2.07,10.74q0,21.07,7.85,24.79,4.13,2.07,45.44,2.07,28.08,0,59.48-2.07-6.62,41.29-26,83.85a255.82,255.82,0,0,0-32.63-2.06q-100.8,0-100.79,73.52,0,28.5,18.17,46.26,17.36,19,46.27,19a44.72,44.72,0,0,0,17.76-3.73A127.68,127.68,0,0,0,1340.65,462q13.21-13.23,32.63-48.34l16.11,3.72q9.09,1.65,16.53,3.72,18.58,4.54,34.28,9.09-9.09,26.43-14.46,40.07a80.28,80.28,0,0,1-3.79,8.93c2.19,3.35,6.41,7.24,12.88,11.71q9.5,7,17.76,8.68,18.6-17.34,35.53-53.28l23.54,7.84q6.6,0,10.33-9.91,5-9.48,5-16.11Q1526.94,419,1518.68,416.51Zm-240.4,31.39a17,17,0,0,1-12.4-5.37c-3.85-3.31-5.78-7.15-5.78-11.57q0-24.78,52.05-24h9.08Q1292.33,447.91,1278.28,447.9Z" transform="translate(-86.75 -122.53)" style="fill:#a59e86"/><path d="M1823.53,240.54l-49.15.83q7-34.29,7-36.35,0-6.6-11.15-10.74-10.76-4.54-19-4.54a10.41,10.41,0,0,0-5.37,1.23q-7.42,5-24.37,54.94-34.29,3.32-40.48,4.55-26,4.13-38,9.49c-3.59,1.66-5.37,5.79-5.37,12.39q0,20.67,10.74,24.37,2.88,2.09,28.09,2.07h13.63c5.5,0,10.74-.13,15.69-.42q-14,58.25-14,88.81a110.28,110.28,0,0,0,2.48,23.14q1.24,5.79,13.22,5.78,10.32,0,26-3.3,19.41-3.3,27.68-3.31a51.5,51.5,0,0,1,28.09,7.85q15.69,9.09,15.69,24.79,0,27.67-55.35,42.54-5.37,2.08-5.37,15.28,0,14.47,5.78,19.42a119.24,119.24,0,0,0,16.94,1.24q37.18,0,63.61-21.07,28.5-23.53,28.51-59.89,0-31.38-30.57-54.53-26.87-19-62-19a102.1,102.1,0,0,0-23.14,2.9l18.18-72.71q22.31-.82,40.48-2.07,15.29-.81,25.2-2.06,37.17-3.72,62.37-10.74a83.32,83.32,0,0,0,2.06-18.58q0-12.39-3.71-19.83Q1860.72,240.55,1823.53,240.54Z" transform="translate(-86.75 -122.53)" style="fill:#a59e86"/><path d="M2166.79,353.72q-1.65-15.27-5.78-38.83,44.2-4.53,67.33-13.63a94.68,94.68,0,0,0,.82-11.57q0-15.69-5.36-23.95-31-4.53-73.53-2.89l-7.85-31.39q-5.37-13.64-21.48-13.64-22.3,0-22.3,17.35,0,3.72,5,32.64-26,2.47-33.87,4.12-24.39,2.9-30.57,6.62-3.72,1.65-3.71,12,0,22.31,6.19,26.44,9.07,3.72,72.29,1.23,1.65,9.1,2.89,19.83l1.65,20.25q-43.36,8.67-67.74,31.38-28.92,27.27-28.92,66.52,0,32.22,19.83,52,19,19.44,50.8,19.43,37.18,0,60.32-29.75,21.06-27.66,21.06-66.09a188.36,188.36,0,0,0-2.48-28.09q52.88,2.48,62.38,61.14l2.06,23.13c.83,4.13,3.44,7.43,7.86,9.91a34.72,34.72,0,0,0,14.87,3.72q25.59,0,25.6-28.91,0-57.42-28.91-86.75Q2227.1,359.09,2166.79,353.72Zm-49.57,104.1q-9.09,14.87-24,14.87-20.66,0-20.64-26.86,0-30.13,47.91-34.7a54.71,54.71,0,0,1,2.89,18.18A70,70,0,0,1,2117.22,457.82Z" transform="translate(-86.75 -122.53)" style="fill:#a59e86"/><path d="M2306.41,246.73l-4.54-3.71-2.07-.82q-5,0-19.41,9.08-13.23,10.74-13.22,14,0,12.39,21.06,40.89,21.48,29.75,31,33.45,21.87-9.92,33-21.06-4.12-16.11-17.33-38.41Q2322.52,259.55,2306.41,246.73Z" transform="translate(-86.75 -122.53)" style="fill:#a59e86"/><path d="M2724.85,207.9c-2.75,0-7.57,1-14.45,2.9q-8.67,2.47-8.68,6.19,0,11.16,7,25.21,5.36,14.87,13.22,21.48,11.55-.42,24.77-7.86v-3.3q0-11.57-6.61-26.44Q2733.11,207.92,2724.85,207.9Z" transform="translate(-86.75 -122.53)" style="fill:#a59e86"/><path d="M2646,261.61q0-9.5-2.06-12.8-33.89-6.62-88-6.21,5-16.92,7.44-26.43,2.47-8.68,2.48-11.15,0-7-9.5-11.15a33.34,33.34,0,0,0-16.1-4.55,15.44,15.44,0,0,0-10.74,4.13q-3.72,2.9-24.79,52.46-59.89,5.79-69,10.33-5.79,2.07-5.78,15.69,0,17.77,5.78,21.48,4.53,4.14,49.15,4.55-58.24,156.56-59.48,213.55,14.46,12.39,31,12.39a18.41,18.41,0,0,0,5.8-.82L2503,407.83q20.24-59.9,36.35-110.7,41.3-1.25,52.87-2.48,29.74-2.47,49.57-7.84A85,85,0,0,0,2646,261.61Z" transform="translate(-86.75 -122.53)" style="fill:#a59e86"/><path d="M2676.53,269.46q11.55-.42,25.19-8.26v-3.31q0-10.74-7-26.43-7.42-17.76-15.29-17.77a41.36,41.36,0,0,0-14,2.89q-8.67,3.31-8.67,5.79,0,12,6.61,26Q2669.1,262.85,2676.53,269.46Z" transform="translate(-86.75 -122.53)" style="fill:#a59e86"/><path d="M2713.29,342.15a152,152,0,0,0-39.24-5q-16.53,0-38.41,4.14-27.69,5.35-34.7,11.56c-.83.56-1.25,2.75-1.25,6.61a143.61,143.61,0,0,0,1.65,16.93q2.49,12.82,4.55,14.47,3.3,2.07,22.31,2.06,62.37,0,83.85-11.57a164,164,0,0,0,2.06-25.19,79.49,79.49,0,0,0-.4-8.26A36.23,36.23,0,0,0,2713.29,342.15Z" transform="translate(-86.75 -122.53)" style="fill:#a59e86"/><path d="M2711.64,468.14l-19.42-7.44L2668.67,452q-33.43-10.32-43.77-10.33-2.49,0-11.16,14.05-8.68,14.46-8.67,18.17v1.25q-.84,6.6,25.61,18.16,19.4,9.51,32.63,12.81,16.93,5,29.32,5,10.74,0,17.35-3.72,2.49-10.32,2.48-25.61,0-4.12-.41-8.25A29.79,29.79,0,0,0,2711.64,468.14Z" transform="translate(-86.75 -122.53)" style="fill:#a59e86"/><path d="M3150.32,435.51q-5.79-3.72-15.29-8.68l-15.28-8.67V407q.4-36.75-8.67-59.89-10.76-28.5-40.9-42.54a89.2,89.2,0,0,0-33.87-6.21q-43.79,0-109.46,47.51,5.78-9.5,12.38-22.3l13.22-26.86q18.18-35.93,18.18-40.89t-4.54-14q-6.6-6.19-12-6.61l-.41-.83-21.08-1.23,1.25-23.55q0-10.32-18.59-10.33c-9.08,0-15,3.45-17.76,10.33q-2.08,3.72-5.79,24.78-57.41,4.14-69,11.16-3.72,1.65-3.71,16.93,0,14,3.3,16.52,5.77,6.19,62.78,3.73L2880.59,331q-47.1,73.13-65.68,130.12.81,4.54,10.74,10.32,10.72,5.81,14.45,5.37,12.39-14.85,35.11-48.33l-.41,19.42V462q0,39.24,2.89,58.65a48.61,48.61,0,0,0,23.13,6.2,24.52,24.52,0,0,0,6.61-.83,9.33,9.33,0,0,0,4.13-1.65q3.72-26,6.61-55.35,3.32-33.47,5.38-70.23,32.63-26.83,49.15-36.34Q3004.08,343,3029.29,343q23.94,0,34.7,18.17,7,12,8.26,41.72a105.21,105.21,0,0,0-22.73-2.89q-27.26,0-46.67,17.35-21.06,17.78-21.06,45,0,26,18.58,42.13,18.59,16.93,44.2,16.93,48.75,0,69.4-65.25,22.31,8.67,27.67,8.67,4.55,0,7.44-7.44a22.39,22.39,0,0,0,3.3-12,36.2,36.2,0,0,0-.41-5.78A12.9,12.9,0,0,0,3150.32,435.51Zm-91.71,31.4q-6.6,12.79-19,12.8-17.76,0-17.76-17.76,0-10.74,9.5-16.53a27.39,27.39,0,0,1,18.17-6.6q8.68,0,18.18,4.95Q3061.1,464,3058.61,466.91Z" transform="translate(-86.75 -122.53)" style="fill:#a59e86"/><path d="M3302.75,272.76a51.14,51.14,0,0,0,7.42,1.24q18.18,1.63,35.95,4.55,14,2.06,30.15,5.36a112.84,112.84,0,0,1,19,6.61l12.8,5.37a35.69,35.69,0,0,0,7.85,2.89,55.75,55.75,0,0,0-2.89,5.79l-2.48,5.78a30.24,30.24,0,0,0,15.69,12q13.64,7,19.83,9.51,24.79-16.51,24.79-42.14,0-28.1-48.33-47.49-41.73-14.88-78.49-14.88-32.62,0-47.9,6.61-3.32,1.24-3.31,12.4,0,21.06,6.19,26Z" transform="translate(-86.75 -122.53)" style="fill:#a59e86"/><path d="M3439.88,443.35q-25.62,15.28-65.27,15.29-41.71,0-60.31-14.87h-1.65q-4.12,0-17.76,9.5-12.39,10.32-12.39,13.22V469q0,2.07,6.2,8.26,31.8,35.53,84.68,35.52,24.78,0,54.11-11.15,32.22-12.41,41.31-29.75Q3456.8,452,3439.88,443.35Z" transform="translate(-86.75 -122.53)" style="fill:#a59e86"/></svg>